<mxfile host="app.diagrams.net" modified="2024-06-21T01:53:28.389Z" agent="Mozilla/5.0 (Windows NT 10.0; Win64; x64) AppleWebKit/537.36 (KHTML, like Gecko) Chrome/126.0.0.0 Safari/537.36" etag="83aL4NRjneHPf1TyS5Cq" version="24.5.5" type="github">
  <diagram name="第 1 页" id="umxzl28w_7Frq8w19yzO">
    <mxGraphModel dx="1338" dy="908" grid="1" gridSize="10" guides="1" tooltips="1" connect="1" arrows="1" fold="1" page="1" pageScale="1" pageWidth="827" pageHeight="1169" math="0" shadow="0">
      <root>
        <mxCell id="0" />
        <mxCell id="1" parent="0" />
        <mxCell id="QTKD-8OSb_6cW6TbMTXk-1" value="" style="rounded=0;whiteSpace=wrap;html=1;" parent="1" vertex="1">
          <mxGeometry x="110" y="170" width="620" height="920" as="geometry" />
        </mxCell>
        <mxCell id="QTKD-8OSb_6cW6TbMTXk-18" style="rounded=0;orthogonalLoop=1;jettySize=auto;html=1;entryX=1;entryY=0.5;entryDx=0;entryDy=0;strokeColor=default;endArrow=none;endFill=0;" parent="1" target="QTKD-8OSb_6cW6TbMTXk-6" edge="1">
          <mxGeometry relative="1" as="geometry">
            <mxPoint x="770" y="260" as="sourcePoint" />
          </mxGeometry>
        </mxCell>
        <mxCell id="JHXLXgb01uyuLItqDjtC-1" value="&lt;span style=&quot;color: rgb(50, 50, 50); font-family: &amp;quot;Microsoft YaHei&amp;quot;, 微软雅黑, Arial; font-size: 16px; text-wrap: wrap; background-color: rgba(255, 255, 255, 0.01);&quot;&gt;Evacuation&lt;/span&gt;&lt;div&gt;&lt;span style=&quot;color: rgb(50, 50, 50); font-family: &amp;quot;Microsoft YaHei&amp;quot;, 微软雅黑, Arial; font-size: 16px; text-wrap: wrap; background-color: rgba(255, 255, 255, 0.01);&quot;&gt;Warden&lt;/span&gt;&lt;/div&gt;" style="shape=umlActor;verticalLabelPosition=bottom;verticalAlign=top;html=1;outlineConnect=0;" parent="1" vertex="1">
          <mxGeometry x="771" y="240" width="30" height="60" as="geometry" />
        </mxCell>
        <mxCell id="UGJf15UZh1fcJdA8r9eF-1" style="rounded=0;orthogonalLoop=1;jettySize=auto;html=1;exitX=1;exitY=0.3333333333333333;exitDx=0;exitDy=0;exitPerimeter=0;entryX=0;entryY=0.5;entryDx=0;entryDy=0;" parent="1" source="QTKD-8OSb_6cW6TbMTXk-2" target="QTKD-8OSb_6cW6TbMTXk-30" edge="1">
          <mxGeometry relative="1" as="geometry" />
        </mxCell>
        <mxCell id="QTKD-8OSb_6cW6TbMTXk-2" value="&lt;span style=&quot;color: rgb(50, 50, 50); font-family: &amp;quot;Microsoft YaHei&amp;quot;, 微软雅黑, Arial; font-size: 16px; text-wrap: wrap; background-color: rgba(255, 255, 255, 0.01);&quot;&gt;Firefighter&lt;/span&gt;" style="shape=umlActor;verticalLabelPosition=bottom;verticalAlign=top;html=1;outlineConnect=0;" parent="1" vertex="1">
          <mxGeometry x="50" y="890" width="30" height="60" as="geometry" />
        </mxCell>
        <mxCell id="QTKD-8OSb_6cW6TbMTXk-20" style="rounded=0;orthogonalLoop=1;jettySize=auto;html=1;exitX=0;exitY=0.3333333333333333;exitDx=0;exitDy=0;exitPerimeter=0;entryX=1;entryY=0.5;entryDx=0;entryDy=0;endArrow=none;endFill=0;" parent="1" source="QTKD-8OSb_6cW6TbMTXk-3" target="QTKD-8OSb_6cW6TbMTXk-6" edge="1">
          <mxGeometry relative="1" as="geometry" />
        </mxCell>
        <mxCell id="QTKD-8OSb_6cW6TbMTXk-21" style="rounded=0;orthogonalLoop=1;jettySize=auto;html=1;exitX=0;exitY=0.3333333333333333;exitDx=0;exitDy=0;exitPerimeter=0;entryX=1;entryY=0.5;entryDx=0;entryDy=0;endArrow=none;endFill=0;" parent="1" source="QTKD-8OSb_6cW6TbMTXk-3" target="QTKD-8OSb_6cW6TbMTXk-9" edge="1">
          <mxGeometry relative="1" as="geometry" />
        </mxCell>
        <mxCell id="QTKD-8OSb_6cW6TbMTXk-31" style="rounded=0;orthogonalLoop=1;jettySize=auto;html=1;exitX=0;exitY=0.3333333333333333;exitDx=0;exitDy=0;exitPerimeter=0;entryX=1;entryY=0.5;entryDx=0;entryDy=0;" parent="1" source="QTKD-8OSb_6cW6TbMTXk-3" target="QTKD-8OSb_6cW6TbMTXk-30" edge="1">
          <mxGeometry relative="1" as="geometry" />
        </mxCell>
        <mxCell id="c2fDFheV1kIz01G_FJju-1" style="rounded=0;orthogonalLoop=1;jettySize=auto;html=1;exitX=0;exitY=0.3333333333333333;exitDx=0;exitDy=0;exitPerimeter=0;endArrow=none;endFill=0;" edge="1" parent="1" source="QTKD-8OSb_6cW6TbMTXk-3" target="QTKD-8OSb_6cW6TbMTXk-8">
          <mxGeometry relative="1" as="geometry" />
        </mxCell>
        <mxCell id="QTKD-8OSb_6cW6TbMTXk-3" value="&lt;span style=&quot;color: rgb(50, 50, 50); font-family: &amp;quot;Microsoft YaHei&amp;quot;, 微软雅黑, Arial; font-size: 16px; text-wrap: wrap; background-color: rgba(255, 255, 255, 0.01);&quot;&gt;IFS Manager&lt;/span&gt;" style="shape=umlActor;verticalLabelPosition=bottom;verticalAlign=top;html=1;outlineConnect=0;" parent="1" vertex="1">
          <mxGeometry x="771" y="540" width="30" height="60" as="geometry" />
        </mxCell>
        <mxCell id="QTKD-8OSb_6cW6TbMTXk-4" value="&lt;font face=&quot;Microsoft YaHei, 微软雅黑, Arial&quot; color=&quot;#323232&quot;&gt;&lt;span style=&quot;font-size: 16px; text-wrap: wrap;&quot;&gt;Fire Indicator&lt;/span&gt;&lt;/font&gt;&lt;div&gt;&lt;font face=&quot;Microsoft YaHei, 微软雅黑, Arial&quot; color=&quot;#323232&quot;&gt;&lt;span style=&quot;font-size: 16px; text-wrap: wrap;&quot;&gt;Panel&lt;/span&gt;&lt;/font&gt;&lt;br&gt;&lt;/div&gt;" style="shape=umlActor;verticalLabelPosition=bottom;verticalAlign=top;html=1;outlineConnect=0;" parent="1" vertex="1">
          <mxGeometry x="50" y="585" width="30" height="60" as="geometry" />
        </mxCell>
        <mxCell id="QTKD-8OSb_6cW6TbMTXk-6" value="&lt;span style=&quot;color: rgb(50, 50, 50); font-family: &amp;quot;Microsoft YaHei&amp;quot;, 微软雅黑, Arial; font-size: 16px; background-color: rgba(255, 255, 255, 0.01);&quot;&gt;Trigger Evacuation&lt;/span&gt;" style="ellipse;whiteSpace=wrap;html=1;" parent="1" vertex="1">
          <mxGeometry x="360" y="210" width="120" height="80" as="geometry" />
        </mxCell>
        <mxCell id="QTKD-8OSb_6cW6TbMTXk-24" style="rounded=0;orthogonalLoop=1;jettySize=auto;html=1;exitX=0.5;exitY=0;exitDx=0;exitDy=0;dashed=1;" parent="1" source="QTKD-8OSb_6cW6TbMTXk-8" target="QTKD-8OSb_6cW6TbMTXk-6" edge="1">
          <mxGeometry relative="1" as="geometry" />
        </mxCell>
        <mxCell id="9XIoNBxFiIXgYtFaoxkH-36" value="&lt;span style=&quot;font-size: 14px;&quot;&gt;&amp;lt;&amp;lt; include &amp;gt;&amp;gt;&lt;/span&gt;" style="edgeLabel;html=1;align=center;verticalAlign=middle;resizable=0;points=[];" parent="QTKD-8OSb_6cW6TbMTXk-24" vertex="1" connectable="0">
          <mxGeometry x="0.08" y="6" relative="1" as="geometry">
            <mxPoint as="offset" />
          </mxGeometry>
        </mxCell>
        <mxCell id="QTKD-8OSb_6cW6TbMTXk-25" style="rounded=0;orthogonalLoop=1;jettySize=auto;html=1;exitX=0.5;exitY=1;exitDx=0;exitDy=0;dashed=1;" parent="1" source="QTKD-8OSb_6cW6TbMTXk-8" target="QTKD-8OSb_6cW6TbMTXk-10" edge="1">
          <mxGeometry relative="1" as="geometry" />
        </mxCell>
        <mxCell id="9XIoNBxFiIXgYtFaoxkH-35" value="&lt;font style=&quot;font-size: 14px;&quot;&gt;&amp;lt;&amp;lt;extend&amp;gt;&amp;gt;&lt;/font&gt;" style="edgeLabel;html=1;align=center;verticalAlign=middle;resizable=0;points=[];" parent="QTKD-8OSb_6cW6TbMTXk-25" vertex="1" connectable="0">
          <mxGeometry x="0.0276" y="1" relative="1" as="geometry">
            <mxPoint as="offset" />
          </mxGeometry>
        </mxCell>
        <mxCell id="QTKD-8OSb_6cW6TbMTXk-32" style="rounded=0;orthogonalLoop=1;jettySize=auto;html=1;exitX=0.5;exitY=0;exitDx=0;exitDy=0;entryX=0.061;entryY=0.75;entryDx=0;entryDy=0;dashed=1;entryPerimeter=0;" parent="1" source="QTKD-8OSb_6cW6TbMTXk-8" target="QTKD-8OSb_6cW6TbMTXk-15" edge="1">
          <mxGeometry relative="1" as="geometry" />
        </mxCell>
        <mxCell id="9XIoNBxFiIXgYtFaoxkH-38" value="&lt;span style=&quot;font-size: 14px;&quot;&gt;&amp;lt;&amp;lt; include &amp;gt;&amp;gt;&lt;/span&gt;" style="edgeLabel;html=1;align=center;verticalAlign=middle;resizable=0;points=[];" parent="QTKD-8OSb_6cW6TbMTXk-32" vertex="1" connectable="0">
          <mxGeometry x="-0.0263" y="1" relative="1" as="geometry">
            <mxPoint as="offset" />
          </mxGeometry>
        </mxCell>
        <mxCell id="QTKD-8OSb_6cW6TbMTXk-33" style="rounded=0;orthogonalLoop=1;jettySize=auto;html=1;exitX=1;exitY=0.5;exitDx=0;exitDy=0;dashed=1;" parent="1" source="QTKD-8OSb_6cW6TbMTXk-8" target="QTKD-8OSb_6cW6TbMTXk-9" edge="1">
          <mxGeometry relative="1" as="geometry" />
        </mxCell>
        <mxCell id="QTKD-8OSb_6cW6TbMTXk-36" value="&lt;font style=&quot;font-size: 14px;&quot;&gt;&amp;lt;&amp;lt; include &amp;gt;&amp;gt;&lt;/font&gt;" style="edgeLabel;html=1;align=center;verticalAlign=middle;resizable=0;points=[];" parent="QTKD-8OSb_6cW6TbMTXk-33" vertex="1" connectable="0">
          <mxGeometry x="0.0148" y="-5" relative="1" as="geometry">
            <mxPoint as="offset" />
          </mxGeometry>
        </mxCell>
        <mxCell id="9XIoNBxFiIXgYtFaoxkH-18" style="rounded=0;orthogonalLoop=1;jettySize=auto;html=1;exitX=0.5;exitY=0;exitDx=0;exitDy=0;entryX=1;entryY=0.5;entryDx=0;entryDy=0;dashed=1;" parent="1" source="QTKD-8OSb_6cW6TbMTXk-8" target="9XIoNBxFiIXgYtFaoxkH-17" edge="1">
          <mxGeometry relative="1" as="geometry" />
        </mxCell>
        <mxCell id="9XIoNBxFiIXgYtFaoxkH-37" value="&lt;span style=&quot;font-size: 14px;&quot;&gt;&amp;lt;&amp;lt; include &amp;gt;&amp;gt;&lt;/span&gt;" style="edgeLabel;html=1;align=center;verticalAlign=middle;resizable=0;points=[];" parent="9XIoNBxFiIXgYtFaoxkH-18" vertex="1" connectable="0">
          <mxGeometry x="0.0345" y="-1" relative="1" as="geometry">
            <mxPoint x="-1" as="offset" />
          </mxGeometry>
        </mxCell>
        <mxCell id="QTKD-8OSb_6cW6TbMTXk-8" value="&lt;font face=&quot;Microsoft YaHei, 微软雅黑, Arial&quot; color=&quot;#323232&quot;&gt;&lt;span style=&quot;font-size: 15px;&quot;&gt;FIP Control&lt;/span&gt;&lt;/font&gt;&lt;div&gt;&lt;font face=&quot;Microsoft YaHei, 微软雅黑, Arial&quot; color=&quot;#323232&quot;&gt;&lt;span style=&quot;font-size: 15px;&quot;&gt;Hub&lt;/span&gt;&lt;/font&gt;&lt;br&gt;&lt;/div&gt;" style="ellipse;whiteSpace=wrap;html=1;" parent="1" vertex="1">
          <mxGeometry x="270" y="460" width="120" height="80" as="geometry" />
        </mxCell>
        <mxCell id="QTKD-8OSb_6cW6TbMTXk-9" value="&lt;span style=&quot;color: rgb(50, 50, 50); font-family: &amp;quot;Microsoft YaHei&amp;quot;, 微软雅黑, Arial; font-size: 16px; background-color: rgba(255, 255, 255, 0.01);&quot;&gt;Evaluate Fire Severity&lt;/span&gt;" style="ellipse;whiteSpace=wrap;html=1;" parent="1" vertex="1">
          <mxGeometry x="490" y="440" width="120" height="80" as="geometry" />
        </mxCell>
        <mxCell id="QTKD-8OSb_6cW6TbMTXk-27" style="rounded=0;orthogonalLoop=1;jettySize=auto;html=1;exitX=0.5;exitY=1;exitDx=0;exitDy=0;endArrow=none;endFill=0;dashed=1;" parent="1" source="QTKD-8OSb_6cW6TbMTXk-10" target="QTKD-8OSb_6cW6TbMTXk-12" edge="1">
          <mxGeometry relative="1" as="geometry" />
        </mxCell>
        <mxCell id="9XIoNBxFiIXgYtFaoxkH-34" value="&lt;font style=&quot;font-size: 14px;&quot;&gt;&amp;lt;&amp;lt; include &amp;gt;&amp;gt;&lt;/font&gt;" style="edgeLabel;html=1;align=center;verticalAlign=middle;resizable=0;points=[];" parent="QTKD-8OSb_6cW6TbMTXk-27" vertex="1" connectable="0">
          <mxGeometry x="0.1541" relative="1" as="geometry">
            <mxPoint as="offset" />
          </mxGeometry>
        </mxCell>
        <mxCell id="QTKD-8OSb_6cW6TbMTXk-28" style="rounded=0;orthogonalLoop=1;jettySize=auto;html=1;exitX=0.5;exitY=1;exitDx=0;exitDy=0;endArrow=block;endFill=0;" parent="1" source="QTKD-8OSb_6cW6TbMTXk-10" target="QTKD-8OSb_6cW6TbMTXk-13" edge="1">
          <mxGeometry relative="1" as="geometry" />
        </mxCell>
        <mxCell id="QTKD-8OSb_6cW6TbMTXk-29" style="rounded=0;orthogonalLoop=1;jettySize=auto;html=1;exitX=0.5;exitY=1;exitDx=0;exitDy=0;endArrow=block;endFill=0;" parent="1" source="QTKD-8OSb_6cW6TbMTXk-10" target="QTKD-8OSb_6cW6TbMTXk-14" edge="1">
          <mxGeometry relative="1" as="geometry" />
        </mxCell>
        <mxCell id="QTKD-8OSb_6cW6TbMTXk-10" value="&lt;span style=&quot;color: rgb(50, 50, 50); font-family: &amp;quot;Microsoft YaHei&amp;quot;, 微软雅黑, Arial; font-size: 16px; background-color: rgba(255, 255, 255, 0.01);&quot;&gt;Control Fire Spread&lt;/span&gt;" style="ellipse;whiteSpace=wrap;html=1;" parent="1" vertex="1">
          <mxGeometry x="240" y="590" width="120" height="80" as="geometry" />
        </mxCell>
        <mxCell id="QTKD-8OSb_6cW6TbMTXk-11" value="&lt;font face=&quot;Microsoft YaHei, 微软雅黑, Arial&quot; color=&quot;#323232&quot;&gt;&lt;span style=&quot;font-size: 16px;&quot;&gt;Automatic monitoring&lt;/span&gt;&lt;/font&gt;" style="ellipse;whiteSpace=wrap;html=1;" parent="1" vertex="1">
          <mxGeometry x="120" y="410" width="120" height="80" as="geometry" />
        </mxCell>
        <mxCell id="9XIoNBxFiIXgYtFaoxkH-13" style="rounded=0;orthogonalLoop=1;jettySize=auto;html=1;exitX=0.5;exitY=1;exitDx=0;exitDy=0;entryX=0.5;entryY=0;entryDx=0;entryDy=0;endArrow=block;endFill=0;" parent="1" source="QTKD-8OSb_6cW6TbMTXk-12" target="9XIoNBxFiIXgYtFaoxkH-9" edge="1">
          <mxGeometry relative="1" as="geometry" />
        </mxCell>
        <mxCell id="9XIoNBxFiIXgYtFaoxkH-14" style="rounded=0;orthogonalLoop=1;jettySize=auto;html=1;exitX=0.5;exitY=1;exitDx=0;exitDy=0;entryX=0.5;entryY=0;entryDx=0;entryDy=0;endArrow=block;endFill=0;" parent="1" source="QTKD-8OSb_6cW6TbMTXk-12" target="9XIoNBxFiIXgYtFaoxkH-10" edge="1">
          <mxGeometry relative="1" as="geometry" />
        </mxCell>
        <mxCell id="9XIoNBxFiIXgYtFaoxkH-15" style="rounded=0;orthogonalLoop=1;jettySize=auto;html=1;exitX=0.5;exitY=1;exitDx=0;exitDy=0;entryX=0.5;entryY=0;entryDx=0;entryDy=0;endArrow=block;endFill=0;" parent="1" source="QTKD-8OSb_6cW6TbMTXk-12" target="9XIoNBxFiIXgYtFaoxkH-11" edge="1">
          <mxGeometry relative="1" as="geometry" />
        </mxCell>
        <mxCell id="9XIoNBxFiIXgYtFaoxkH-16" style="rounded=0;orthogonalLoop=1;jettySize=auto;html=1;exitX=0.5;exitY=1;exitDx=0;exitDy=0;endArrow=block;endFill=0;" parent="1" source="QTKD-8OSb_6cW6TbMTXk-12" target="9XIoNBxFiIXgYtFaoxkH-12" edge="1">
          <mxGeometry relative="1" as="geometry" />
        </mxCell>
        <mxCell id="QTKD-8OSb_6cW6TbMTXk-12" value="&lt;span style=&quot;color: rgb(50, 50, 50); font-family: &amp;quot;Microsoft YaHei&amp;quot;, 微软雅黑, Arial; font-size: 16px; background-color: rgba(255, 255, 255, 0.01);&quot;&gt;Activate Suppression Systems&lt;/span&gt;" style="ellipse;whiteSpace=wrap;html=1;" parent="1" vertex="1">
          <mxGeometry x="360" y="720" width="120" height="80" as="geometry" />
        </mxCell>
        <mxCell id="QTKD-8OSb_6cW6TbMTXk-13" value="&lt;span style=&quot;color: rgb(50, 50, 50); font-family: &amp;quot;Microsoft YaHei&amp;quot;, 微软雅黑, Arial; font-size: 15px; background-color: rgba(255, 255, 255, 0.01);&quot;&gt;Close the fire door&lt;/span&gt;" style="ellipse;whiteSpace=wrap;html=1;" parent="1" vertex="1">
          <mxGeometry x="210" y="710" width="120" height="80" as="geometry" />
        </mxCell>
        <mxCell id="QTKD-8OSb_6cW6TbMTXk-14" value="&lt;span style=&quot;color: rgb(50, 50, 50); font-family: &amp;quot;Microsoft YaHei&amp;quot;, 微软雅黑, Arial; font-size: 15px; background-color: rgba(255, 255, 255, 0.01);&quot;&gt;Close fire windows&lt;/span&gt;" style="ellipse;whiteSpace=wrap;html=1;" parent="1" vertex="1">
          <mxGeometry x="470" y="650" width="120" height="80" as="geometry" />
        </mxCell>
        <mxCell id="QTKD-8OSb_6cW6TbMTXk-15" value="&lt;span style=&quot;color: rgb(50, 50, 50); font-family: &amp;quot;Microsoft YaHei&amp;quot;, 微软雅黑, Arial; font-size: 16px; background-color: rgba(255, 255, 255, 0.01);&quot;&gt;Trigger Alarm&lt;/span&gt;" style="ellipse;whiteSpace=wrap;html=1;" parent="1" vertex="1">
          <mxGeometry x="414" y="360" width="120" height="80" as="geometry" />
        </mxCell>
        <mxCell id="QTKD-8OSb_6cW6TbMTXk-26" style="rounded=0;orthogonalLoop=1;jettySize=auto;html=1;entryX=1;entryY=0.5;entryDx=0;entryDy=0;endArrow=block;endFill=0;exitX=0;exitY=0;exitDx=0;exitDy=0;" parent="1" source="QTKD-8OSb_6cW6TbMTXk-8" target="QTKD-8OSb_6cW6TbMTXk-11" edge="1">
          <mxGeometry relative="1" as="geometry">
            <mxPoint x="270" y="460" as="sourcePoint" />
          </mxGeometry>
        </mxCell>
        <mxCell id="QTKD-8OSb_6cW6TbMTXk-30" value="&lt;font face=&quot;Microsoft YaHei, 微软雅黑, Arial&quot; color=&quot;#323232&quot;&gt;&lt;span style=&quot;font-size: 16px;&quot;&gt;Analyze the cause of the fire&lt;/span&gt;&lt;/font&gt;" style="ellipse;whiteSpace=wrap;html=1;" parent="1" vertex="1">
          <mxGeometry x="460" y="990" width="120" height="80" as="geometry" />
        </mxCell>
        <mxCell id="9XIoNBxFiIXgYtFaoxkH-9" value="&lt;span style=&quot;font-size: 15px;&quot;&gt;Sprinkler suppression&lt;/span&gt;" style="ellipse;whiteSpace=wrap;html=1;" parent="1" vertex="1">
          <mxGeometry x="200" y="820" width="120" height="80" as="geometry" />
        </mxCell>
        <mxCell id="9XIoNBxFiIXgYtFaoxkH-10" value="&lt;font style=&quot;font-size: 15px;&quot;&gt;Carbon dioxide suppression&lt;/font&gt;" style="ellipse;whiteSpace=wrap;html=1;" parent="1" vertex="1">
          <mxGeometry x="270" y="900" width="120" height="80" as="geometry" />
        </mxCell>
        <mxCell id="9XIoNBxFiIXgYtFaoxkH-11" value="&lt;font style=&quot;font-size: 15px;&quot;&gt;Foam suppression&lt;/font&gt;" style="ellipse;whiteSpace=wrap;html=1;" parent="1" vertex="1">
          <mxGeometry x="390" y="850" width="120" height="80" as="geometry" />
        </mxCell>
        <mxCell id="9XIoNBxFiIXgYtFaoxkH-12" value="&lt;font style=&quot;font-size: 15px;&quot;&gt;Dry chemical inhibition&lt;/font&gt;" style="ellipse;whiteSpace=wrap;html=1;" parent="1" vertex="1">
          <mxGeometry x="510" y="780" width="120" height="80" as="geometry" />
        </mxCell>
        <mxCell id="9XIoNBxFiIXgYtFaoxkH-17" value="&lt;font style=&quot;font-size: 15px;&quot;&gt;Output system status&lt;/font&gt;" style="ellipse;whiteSpace=wrap;html=1;" parent="1" vertex="1">
          <mxGeometry x="130" y="300" width="120" height="80" as="geometry" />
        </mxCell>
        <mxCell id="9XIoNBxFiIXgYtFaoxkH-19" style="rounded=0;orthogonalLoop=1;jettySize=auto;html=1;exitX=1;exitY=0.3333333333333333;exitDx=0;exitDy=0;exitPerimeter=0;entryX=0;entryY=0.5;entryDx=0;entryDy=0;endArrow=none;endFill=0;" parent="1" source="QTKD-8OSb_6cW6TbMTXk-2" target="QTKD-8OSb_6cW6TbMTXk-10" edge="1">
          <mxGeometry relative="1" as="geometry" />
        </mxCell>
        <mxCell id="9XIoNBxFiIXgYtFaoxkH-31" style="rounded=0;orthogonalLoop=1;jettySize=auto;html=1;exitX=1;exitY=0.3333333333333333;exitDx=0;exitDy=0;exitPerimeter=0;endArrow=none;endFill=0;entryX=0;entryY=0.5;entryDx=0;entryDy=0;" parent="1" source="9XIoNBxFiIXgYtFaoxkH-27" target="QTKD-8OSb_6cW6TbMTXk-11" edge="1">
          <mxGeometry relative="1" as="geometry">
            <mxPoint x="180" y="460" as="targetPoint" />
          </mxGeometry>
        </mxCell>
        <mxCell id="9XIoNBxFiIXgYtFaoxkH-27" value="&lt;font style=&quot;font-size: 15px;&quot;&gt;Registering&lt;/font&gt;&lt;div&gt;&lt;font style=&quot;font-size: 15px;&quot;&gt;Sensors&lt;/font&gt;&lt;/div&gt;" style="shape=umlActor;verticalLabelPosition=bottom;verticalAlign=top;html=1;outlineConnect=0;" parent="1" vertex="1">
          <mxGeometry x="50" y="380" width="30" height="60" as="geometry" />
        </mxCell>
        <mxCell id="9XIoNBxFiIXgYtFaoxkH-40" style="rounded=0;orthogonalLoop=1;jettySize=auto;html=1;exitX=1;exitY=0.3333333333333333;exitDx=0;exitDy=0;exitPerimeter=0;entryX=0.039;entryY=0.767;entryDx=0;entryDy=0;entryPerimeter=0;endArrow=none;endFill=0;" parent="1" source="QTKD-8OSb_6cW6TbMTXk-4" target="QTKD-8OSb_6cW6TbMTXk-8" edge="1">
          <mxGeometry relative="1" as="geometry" />
        </mxCell>
      </root>
    </mxGraphModel>
  </diagram>
</mxfile>
